<?xml version="1.0" standalone="no"?>
<!DOCTYPE svg PUBLIC "-//W3C//DTD SVG 20010904//EN"
 "http://www.w3.org/TR/2001/REC-SVG-20010904/DTD/svg10.dtd">
<svg version="1.0" xmlns="http://www.w3.org/2000/svg"
 width="1080.000000pt" height="1080.000000pt" viewBox="0 0 1080.000000 1080.000000"
 preserveAspectRatio="xMidYMid meet">

<g transform="translate(0.000000,1080.000000) scale(0.100000,-0.100000)"
fill="#000000" stroke="none">
<path d="M3685 7776 c-361 -57 -652 -293 -766 -624 l-34 -97 0 -425 1 -425 27
-100 c80 -295 247 -472 513 -546 111 -31 356 -39 440 -14 79 23 143 56 209
110 l55 45 0 -225 0 -225 -705 0 -705 0 0 -1145 0 -1145 3920 0 3920 0 0 1145
0 1145 -1485 0 -1485 0 20 20 c11 11 20 24 20 28 0 5 27 168 60 363 34 195 97
568 141 829 71 424 96 552 98 513 1 -16 48 -313 156 -983 51 -315 92 -544 101
-557 16 -26 51 -30 79 -9 12 9 60 136 140 371 67 197 124 354 127 349 3 -5 31
-88 63 -184 31 -96 64 -181 73 -187 12 -10 207 -13 894 -13 l878 0 0 33 0 32
-864 -3 -864 -3 -67 201 c-57 172 -71 203 -92 213 -19 9 -30 8 -50 -3 -23 -13
-43 -64 -149 -375 -68 -198 -123 -356 -123 -351 -1 8 -96 600 -215 1345 -36
220 -47 251 -88 251 -37 0 -56 -19 -66 -67 -10 -45 -66 -370 -217 -1268 -72
-430 -76 -448 -80 -443 -2 2 -62 199 -134 438 -135 446 -144 470 -192 470 -30
0 -46 -27 -124 -206 l-74 -169 -181 -3 c-169 -2 -183 -1 -210 18 -16 11 -50
30 -76 41 l-47 21 49 27 c113 62 189 145 253 277 77 158 106 327 98 564 -7
208 -34 325 -107 470 -136 270 -425 457 -750 486 -180 16 -437 -40 -583 -127
-145 -86 -264 -230 -329 -397 -76 -194 -104 -545 -50 -612 16 -20 26 -21 297
-21 l280 0 21 24 c18 22 22 42 27 148 3 71 12 146 21 176 45 143 179 218 327
183 42 -10 64 -24 104 -64 69 -70 86 -124 93 -292 11 -325 -100 -515 -317
-539 -149 -17 -151 -20 -151 -307 0 -117 3 -223 6 -236 10 -35 58 -53 166 -63
198 -17 297 -96 333 -265 8 -38 15 -86 15 -106 l0 -37 -774 2 -775 2 -4 860
c-4 922 -3 907 -56 1058 -51 145 -160 296 -286 397 -143 113 -292 178 -472
205 -115 17 -169 18 -278 1z m235 -622 c68 -20 149 -94 181 -167 23 -51 24
-59 24 -342 l0 -290 -26 -55 c-34 -71 -73 -111 -140 -146 -47 -25 -65 -28
-139 -28 -71 0 -93 5 -135 26 -63 33 -108 79 -137 143 -22 48 -23 63 -26 318
-4 298 2 345 50 420 72 113 212 161 348 121z m3461 -1433 c73 -244 139 -450
147 -457 12 -12 -27 -14 -270 -12 l-283 3 -6 75 c-13 147 -73 309 -158 420
l-41 55 149 5 c116 4 154 8 165 20 8 8 42 80 76 160 67 157 80 184 85 178 1
-1 63 -203 136 -447z m-4044 -1853 c45 -21 117 -95 126 -128 4 -17 0 -20 -26
-20 -25 0 -39 8 -61 36 -90 113 -280 92 -344 -38 -42 -84 -27 -213 31 -277 80
-87 253 -79 316 14 19 28 30 35 57 35 19 0 34 -3 34 -7 0 -4 -14 -28 -31 -54
-70 -102 -195 -142 -317 -103 -71 23 -116 64 -153 139 -30 61 -31 69 -27 152
6 122 52 203 142 250 70 37 177 38 253 1z m1211 6 c43 -18 74 -44 113 -98 37
-50 36 -56 -3 -56 -26 0 -39 8 -62 36 -51 64 -139 88 -228 64 -85 -24 -138
-105 -139 -212 -1 -141 78 -227 209 -228 69 0 110 18 154 69 27 32 42 41 66
41 39 0 39 -6 6 -55 -49 -73 -115 -112 -202 -121 -121 -13 -217 39 -271 148
-27 53 -31 72 -31 137 1 84 15 133 54 189 68 98 215 136 334 86z m2070 -1 c50
-21 98 -59 122 -98 26 -42 26 -45 -11 -45 -23 0 -41 10 -70 39 -110 114 -316
61 -359 -93 -43 -155 53 -296 202 -296 104 0 198 73 198 155 l0 25 -100 0
-100 0 0 30 0 30 135 0 135 0 0 -150 0 -150 -36 0 c-21 0 -33 4 -29 10 4 6 3
24 0 41 l-7 31 -26 -25 c-65 -60 -161 -80 -257 -53 -83 25 -155 98 -178 182
-20 70 -21 104 -6 173 36 170 222 263 387 194z m851 -2 c44 -23 76 -56 90 -94
14 -36 7 -47 -29 -47 -23 0 -32 7 -45 34 -21 43 -74 66 -151 66 -95 0 -155
-45 -140 -106 9 -33 44 -51 166 -84 131 -36 159 -48 194 -90 20 -24 26 -43 26
-77 0 -90 -66 -147 -186 -159 -142 -15 -261 46 -280 144 -6 31 -6 32 28 32 30
0 36 -4 46 -34 19 -50 77 -76 173 -76 112 0 163 41 145 115 -8 31 -56 56 -166
84 -103 26 -168 57 -193 92 -37 51 -17 149 39 186 69 45 208 52 283 14z m2695
7 c64 -19 150 -109 170 -177 42 -145 -12 -288 -135 -356 -48 -26 -64 -30 -139
-30 -75 0 -91 4 -139 30 -234 129 -186 491 72 545 48 10 111 6 171 -12z
m-6450 -125 c50 -73 93 -132 96 -132 3 -1 48 60 99 134 l93 135 40 0 40 0 -17
-27 c-10 -16 -62 -92 -116 -170 l-99 -142 0 -115 0 -116 -35 0 -35 0 0 111 0
110 -110 158 c-60 87 -113 166 -116 175 -6 15 -1 17 32 14 36 -3 41 -8 128
-135z m1186 -118 l0 -255 155 0 155 0 0 -30 0 -30 -190 0 -190 0 0 285 0 285
35 0 35 0 0 -255z m500 -30 l0 -285 -35 0 -35 0 0 285 0 285 35 0 35 0 0 -285z
m434 48 l171 -233 3 235 2 235 35 0 35 0 0 -285 0 -285 -42 1 c-43 0 -43 0
-121 107 -42 59 -119 164 -170 234 l-92 127 -3 -235 -2 -234 -35 0 -35 0 0
286 0 285 42 -3 42 -3 170 -232z m2296 202 l0 -35 -100 0 -100 0 0 -250 0
-250 -35 0 -35 0 0 250 0 250 -95 0 c-69 0 -95 3 -97 13 -4 35 -4 43 -1 50 2
4 107 7 234 7 l229 0 0 -35z m182 -157 c3 -174 6 -197 25 -233 31 -60 88 -88
164 -83 63 5 97 23 133 72 19 25 21 45 26 229 l5 202 33 3 33 3 -3 -208 c-3
-193 -5 -211 -25 -250 -77 -143 -297 -163 -401 -38 -45 56 -52 94 -52 304 l0
191 29 0 29 0 4 -192z m933 171 c214 -80 221 -427 11 -525 -46 -22 -65 -24
-198 -24 l-148 0 0 285 0 285 140 0 c116 0 148 -3 195 -21z m375 -265 l0 -285
-30 3 -31 3 0 275 c0 151 0 278 1 283 0 4 14 7 30 7 l30 0 0 -286z"/>
<path d="M9976 3815 c-120 -43 -173 -197 -110 -323 66 -132 261 -153 361 -39
76 86 70 230 -12 312 -61 62 -153 81 -239 50z"/>
<path d="M8980 3599 l0 -222 114 5 c103 4 118 7 154 30 106 71 124 256 34 351
-47 50 -72 57 -192 57 l-110 0 0 -221z"/>
<path d="M890 7717 c-29 -10 -37 -19 -47 -52 -9 -33 -79 -1331 -100 -1872 -6
-156 1 -192 43 -212 17 -7 113 -11 284 -11 224 0 261 2 275 16 9 9 32 50 52
92 62 130 137 190 260 207 67 9 166 -16 213 -54 52 -41 97 -122 110 -199 8
-45 11 -180 8 -412 l-3 -345 -28 -57 c-30 -62 -74 -106 -140 -140 -34 -18 -59
-22 -132 -23 -83 0 -95 3 -145 31 -91 51 -142 135 -155 255 -11 100 8 94 -317
91 l-283 -3 -22 -25 c-19 -21 -23 -37 -23 -95 0 -146 54 -320 140 -452 199
-302 579 -468 945 -413 227 34 417 134 572 300 108 117 187 267 217 418 23
110 23 872 1 998 -37 213 -130 396 -267 526 -164 158 -340 222 -582 212 -182
-8 -312 -61 -380 -156 -14 -20 -26 -30 -26 -22 -1 36 42 747 46 768 l4 22 531
0 530 0 24 25 25 24 0 254 c0 291 0 292 -80 308 -71 13 -1508 10 -1550 -4z"/>
</g>
</svg>
